REM DIRINDEX 1\2,1\3,1\4
REM DIRNAME cjc077,folder01,folder02,folder03
TITLE ""
FILE "CD2Track24.mp3" MP3
  TRACK 01 AUDIO
    TITLE "0:"
    INDEX 01 00:00:00
  TRACK 02 AUDIO
    TITLE "2:cjc077_0697"
    INDEX 01 00:00:11
  TRACK 03 AUDIO
    TITLE "2:cjc077_0698"
    INDEX 01 00:08:56
  TRACK 04 AUDIO
    TITLE "0:"
    INDEX 01 00:19:34
